<svg width="153" height="32" viewBox="0 0 153 32" fill="none" xmlns="http://www.w3.org/2000/svg">
<path d="M8.68216 18.6189H4.87527V3.52317H0V0.288373H13.5574V3.52317H8.68216V18.6189Z" fill="#68ACC6"/>
<path d="M26.6605 18.6189H16.3205V0.288373H26.6605V3.47301H20.1274V7.4977H26.2061V10.6823H20.1274V15.4091H26.6605V18.6189Z" fill="#68ACC6"/>
<path d="M44.9335 18.6189H40.5863L36.411 11.6854L32.2357 18.6189H28.1587L34.1146 9.16525L28.5394 0.288373H32.7392L36.6075 6.88334L40.4021 0.288373H44.5037L38.8671 9.37839L44.9335 18.6189Z" fill="#68ACC6"/>
<path d="M61.9049 18.6189H58.1103V10.7074H51V18.6189H47.1931V0.288373H51V7.47262H58.1103V0.288373H61.9049V18.6189Z" fill="#68ACC6"/>
<path d="M82.7445 9.42854C82.7445 10.8412 82.5726 12.1284 82.2288 13.2902C81.8849 14.4437 81.3609 15.4384 80.6569 16.2743C79.961 17.1101 79.0768 17.7537 78.0043 18.2051C76.9319 18.6481 75.6629 18.8696 74.1974 18.8696C72.732 18.8696 71.463 18.6481 70.3906 18.2051C69.3181 17.7537 68.4298 17.1101 67.7257 16.2743C67.0299 15.4384 66.51 14.4395 66.1661 13.2777C65.8223 12.1158 65.6504 10.8244 65.6504 9.40347C65.6504 7.50606 65.9533 5.85523 66.5591 4.45097C67.1731 3.03836 68.1146 1.94338 69.3836 1.16603C70.6525 0.388677 72.2654 0 74.222 0C76.1705 0 77.771 0.388677 79.0236 1.16603C80.2844 1.94338 81.2177 3.03836 81.8235 4.45097C82.4375 5.86358 82.7445 7.52277 82.7445 9.42854ZM69.6415 9.42854C69.6415 10.7074 69.797 11.8108 70.1081 12.7386C70.4274 13.658 70.9227 14.3685 71.594 14.87C72.2654 15.3632 73.1332 15.6098 74.1974 15.6098C75.2781 15.6098 76.1541 15.3632 76.8254 14.87C77.4967 14.3685 77.9839 13.658 78.2868 12.7386C78.5979 11.8108 78.7534 10.7074 78.7534 9.42854C78.7534 7.50606 78.4014 5.99314 77.6973 4.8898C76.9933 3.78646 75.8348 3.23479 74.222 3.23479C73.1495 3.23479 72.2735 3.48555 71.594 3.98707C70.9227 4.48023 70.4274 5.19071 70.1081 6.11852C69.797 7.03797 69.6415 8.14131 69.6415 9.42854Z" fill="#68ACC6"/>
<path d="M86.4654 18.6189V0.288373H100.674V18.6189H96.8791V3.52317H90.2723V18.6189H86.4654Z" fill="#68ACC6"/>
<path d="M116.196 18.6189L114.894 14.2557H108.349L107.047 18.6189H102.946L109.282 0.213145H113.936L120.298 18.6189H116.196ZM113.986 10.9958L112.684 6.73288C112.602 6.44869 112.491 6.08509 112.352 5.64208C112.221 5.19071 112.086 4.73517 111.947 4.27544C111.816 3.80736 111.71 3.40197 111.628 3.05926C111.546 3.40197 111.431 3.82826 111.284 4.33813C111.145 4.83965 111.01 5.31609 110.879 5.76746C110.748 6.21883 110.654 6.54063 110.596 6.73288L109.307 10.9958H113.986Z" fill="#68ACC6"/>
<path d="M128.304 0.288373C130.621 0.288373 132.312 0.79825 133.376 1.818C134.44 2.8294 134.973 4.22529 134.973 6.00568C134.973 6.80811 134.854 7.57711 134.616 8.31267C134.379 9.03987 133.99 9.68766 133.45 10.256C132.918 10.8244 132.205 11.2758 131.313 11.6101C130.421 11.9361 129.32 12.0991 128.01 12.0991H126.376V18.6189H122.569V0.288373H128.304ZM128.108 3.47301H126.376V8.91449H127.629C128.341 8.91449 128.959 8.81836 129.483 8.62611C130.007 8.43387 130.412 8.13295 130.699 7.72338C130.986 7.31381 131.129 6.78721 131.129 6.1436C131.129 5.24087 130.883 4.57218 130.392 4.13753C129.901 3.69452 129.139 3.47301 128.108 3.47301Z" fill="#68ACC6"/>
<path d="M153 18.6189H148.677L142.169 9.32824V18.6189H138.362V0.288373H142.169V9.16525L148.604 0.288373H152.656L146.111 9.09002L153 18.6189Z" fill="#68ACC6"/>
<path d="M43.6564 31.8589V21.548H51.4137V31.8589H49.7697V22.9868H45.3142V31.8589H43.6564Z" fill="#585858"/>
<path d="M57.0227 21.548C58.326 21.548 59.2769 21.8207 59.8756 22.3661C60.4742 22.9115 60.7736 23.6756 60.7736 24.6582C60.7736 25.1049 60.7045 25.5304 60.5663 25.9348C60.4328 26.3344 60.2117 26.6894 59.9032 26.9997C59.5947 27.3053 59.1871 27.5475 58.6805 27.7261C58.1786 27.9048 57.5592 27.9941 56.8224 27.9941H55.7448V31.8589H54.087V21.548H57.0227ZM56.9122 22.9515H55.7448V26.5836H56.6497C57.1701 26.5836 57.6122 26.5225 57.976 26.4002C58.3398 26.2733 58.6161 26.0735 58.8049 25.8008C58.9937 25.5281 59.0881 25.1684 59.0881 24.7217C59.0881 24.1246 58.9108 23.6803 58.5562 23.3888C58.2062 23.0973 57.6582 22.9515 56.9122 22.9515Z" fill="#585858"/>
<path d="M71.7567 26.6894C71.7567 27.484 71.6577 28.2081 71.4597 28.8616C71.2663 29.5104 70.9739 30.0699 70.5824 30.5401C70.191 31.0056 69.7006 31.3653 69.1111 31.6192C68.5217 31.8731 67.8309 32 67.0388 32C66.2329 32 65.5329 31.8731 64.9389 31.6192C64.3494 31.3653 63.859 31.0032 63.4676 30.5331C63.0807 30.0629 62.7906 29.501 62.5972 28.8475C62.4038 28.1939 62.3071 27.4699 62.3071 26.6753C62.3071 25.6127 62.4775 24.6865 62.8182 23.8966C63.1636 23.102 63.6863 22.486 64.3863 22.0488C65.0909 21.6068 65.9796 21.3858 67.0526 21.3858C68.1026 21.3858 68.9753 21.6045 69.6706 22.0417C70.366 22.479 70.8864 23.0949 71.2318 23.8895C71.5817 24.6794 71.7567 25.6127 71.7567 26.6894ZM64.0478 26.6894C64.0478 27.484 64.1537 28.1728 64.3656 28.7558C64.5774 29.3341 64.902 29.7808 65.3395 30.0958C65.7816 30.4061 66.348 30.5613 67.0388 30.5613C67.7342 30.5613 68.3006 30.4061 68.7381 30.0958C69.1756 29.7808 69.4979 29.3341 69.7052 28.7558C69.9124 28.1728 70.016 27.484 70.016 26.6894C70.016 25.481 69.7789 24.536 69.3045 23.8542C68.8348 23.1678 68.0842 22.8246 67.0526 22.8246C66.3619 22.8246 65.7931 22.9797 65.3464 23.29C64.9044 23.6004 64.5774 24.0447 64.3656 24.623C64.1537 25.1966 64.0478 25.8854 64.0478 26.6894Z" fill="#585858"/>
<path d="M79.6453 31.8589H73.9258V21.548H79.6453V22.9727H75.5836V25.7726H79.3897V27.1901H75.5836V30.4273H79.6453V31.8589Z" fill="#585858"/>
<path d="M89.5647 31.8589H87.6375L83.4859 26.6259V31.8589H81.8281V21.548H83.4859V26.5413L87.5615 21.548H89.3713L85.2958 26.5272L89.5647 31.8589Z" fill="#585858"/>
<path d="M94.407 31.8589H92.7422V22.9868H89.7857V21.548H97.3565V22.9868H94.407V31.8589Z" fill="#585858"/>
<path d="M98.9038 31.8589V21.548H100.562V25.7161H101.715C102.641 25.7161 103.387 25.8478 103.953 26.1111C104.524 26.3697 104.941 26.727 105.204 27.1831C105.466 27.6391 105.597 28.1587 105.597 28.7417C105.597 29.7103 105.289 30.4719 104.672 31.0267C104.059 31.5815 103.09 31.8589 101.764 31.8589H98.9038ZM100.562 30.4484H101.674C102.406 30.4484 102.961 30.3144 103.339 30.0464C103.716 29.7737 103.905 29.3388 103.905 28.7417C103.905 28.3232 103.815 27.9988 103.636 27.7684C103.461 27.5381 103.196 27.3758 102.841 27.2818C102.491 27.1878 102.056 27.1408 101.536 27.1408H100.562V30.4484ZM106.979 31.8589V21.548H108.637V31.8589H106.979Z" fill="#585858"/>
</svg>
